<svg xmlns="http://www.w3.org/2000/svg" viewBox="0 0 100 100" role="img" aria-hidden="true">
  <defs>
    <filter id="g-w"><feTurbulence type="fractalNoise" baseFrequency="0.85" numOctaves="4" result="n"/>
      <feColorMatrix in="n" type="saturate" values="0"/>
      <feComponentTransfer><feFuncA type="linear" slope="0.18"/></feComponentTransfer>
      <feComposite in2="SourceGraphic" operator="in"/></filter>
  </defs>
  <rect width="100" height="100" fill="#d7ecf2"/>
  <circle cx="22" cy="22" r="9" fill="#f6efd8"/>
  <path d="M0 46h100v54H0z" fill="#3f8f6a"/>
  <path d="M0 68c20-6 34 3 52-2s30-8 48-3v37H0z" fill="#2b6b4d"/>
  <path d="M44 46h12l20 54H24z" fill="#f2e6c9"/>
  <circle cx="53" cy="55" r="2" fill="#1d6646"/>
  <circle cx="45" cy="66" r="2.8" fill="#1d6646"/>
  <circle cx="57" cy="79" r="3.6" fill="#1d6646"/>
  <circle cx="43" cy="93" r="4.4" fill="#1d6646"/>
  <path d="M15 42c6 0 9 5 9 10h-18c0-5 3-10 9-10z" fill="#2e9b6b"/>
  <rect x="13.5" y="52" width="3" height="7" fill="#1d6646"/>
  <path d="M85 40c5 0 8 5 8 9h-16c0-4 3-9 8-9z" fill="#2e9b6b"/>
  <rect x="83.5" y="49" width="3" height="6" fill="#1d6646"/>
  <rect width="100" height="100" filter="url(#g-w)" opacity="0.7"/>
</svg>
