<svg xmlns="http://www.w3.org/2000/svg" viewBox="0 0 425 413" role="img" aria-hidden="true">
  <defs>
    <filter id="g-ds"><feTurbulence type="fractalNoise" baseFrequency="0.354" numOctaves="4" result="n"/>
      <feColorMatrix in="n" type="saturate" values="0"/>
      <feComponentTransfer><feFuncA type="linear" slope="0.18"/></feComponentTransfer>
      <feComposite in2="SourceGraphic" operator="in"/></filter>
    <g id="ds">
    <path fill="#f2e6c9" transform="scale(0.333333) translate(0.000000,1239.000000) scale(1.000000,-1.000000)" d="M1043 1227 c-2 0 -4 -1 -5 -2 -1 -1 -2 -1 -3 0 -1 0 -5 -1 -9 -5 -2 -1 -5 -2 -6 -2 -2 0 -3 -1 -3 -3 0 -1 -4 -6 -10 -12 -5 -5 -9 -10 -9 -10 0 0 -1 -1 -2 -1 -1 -1 -2 -2 -3 -4 0 -1 -3 -3 -5 -5 -2 -1 -5 -5 -7 -8 -2 -3 -4 -6 -4 -7 -1 0 -1 -1 -1 -2 0 -1 -1 -2 -2 -3 0 -1 -2 -2 -2 -3 -2 -5 -4 -7 -5 -8 -1 -1 -2 -2 -2 -3 0 -1 -1 -2 -2 -3 -1 -2 -3 -5 -4 -7 -5 -9 -9 -15 -11 -16 -2 -1 -3 -4 -5 -8 -3 -11 -4 -13 -6 -14 0 -1 -2 -4 -3 -7 -2 -9 -3 -9 -8 -5 -6 5 -12 7 -24 6 -15 -1 -22 -2 -25 -4 -2 -1 -4 -2 -5 -2 -1 0 -2 0 -2 -1 -1 -1 -3 -1 -6 -1 -5 0 -11 -2 -14 -5 -2 -1 -5 -2 -7 -2 -1 0 -3 0 -3 -1 -1 -1 -2 -1 -3 -1 -1 0 -4 -1 -8 -3 -3 -2 -8 -4 -12 -5 -4 -1 -8 -4 -11 -5 -2 -2 -5 -3 -5 -3 -1 0 -2 -1 -3 -1 -1 -1 -2 -2 -2 -2 -1 0 -4 -1 -6 -3 -3 -1 -6 -2 -7 -2 -1 0 -2 -1 -3 -1 0 -1 -3 -4 -7 -6 -16 -11 -22 -22 -20 -35 1 -11 2 -17 5 -20 0 -2 1 -3 1 -5 0 -1 1 -3 3 -5 2 -2 3 -4 3 -5 0 -1 2 -5 6 -11 0 -1 1 -3 2 -4 1 -1 1 -2 2 -2 1 0 1 -1 1 -2 0 -1 3 -5 6 -8 7 -7 7 -8 3 -25 0 -4 -1 -10 -2 -12 0 -3 -1 -6 -2 -8 0 -1 -1 -4 -1 -6 0 -2 -1 -5 -1 -6 -1 -1 -2 -4 -3 -6 -2 -8 -4 -15 -4 -17 -1 -1 -2 -6 -4 -16 -1 -3 -2 -7 -2 -8 -1 -2 -2 -6 -3 -9 -1 -4 -2 -7 -2 -8 -2 -2 -5 -8 -5 -9 0 -1 -1 -3 -2 -5 -1 -3 -2 -5 -2 -6 -1 -1 -2 -2 -3 -2 -2 0 -15 -15 -15 -18 0 -1 -1 -3 -2 -4 -3 -2 -6 -9 -6 -13 0 -2 -1 -3 -3 -5 -2 0 -4 -2 -5 -3 -1 0 -2 -1 -3 -1 -2 0 -12 -5 -13 -6 0 -1 -1 -1 -2 -1 -2 0 -6 -1 -9 -3 -4 -1 -10 -3 -13 -3 -11 -2 -16 -3 -17 -4 -1 0 -7 -1 -13 -2 -6 0 -16 -1 -23 -2 -7 0 -16 -1 -19 -1 -3 0 -7 -1 -9 -1 -2 -1 -35 -1 -149 -2 -112 0 -147 0 -149 -1 -1 0 -6 -1 -10 -2 -9 0 -15 -1 -20 -4 -1 -1 -4 -1 -6 -2 -2 0 -4 0 -5 -1 -2 0 -6 -2 -9 -3 -4 -1 -8 -3 -9 -4 -1 0 -2 -1 -3 -1 -1 0 -3 -1 -5 -1 -1 -1 -6 -3 -9 -5 -4 -2 -9 -4 -11 -6 -2 -2 -4 -3 -5 -3 -1 0 -3 -1 -5 -3 -3 -3 -3 -3 -6 -2 -2 1 -6 1 -9 2 -3 0 -6 1 -6 1 -1 1 -3 2 -13 7 -10 4 -12 5 -16 8 -2 1 -5 2 -5 2 -1 0 -3 1 -4 3 -1 2 -3 3 -3 3 -1 0 -3 2 -5 4 -2 1 -5 3 -6 3 -1 0 -5 3 -9 7 -3 4 -7 7 -8 7 -1 0 -17 17 -17 19 0 0 -2 3 -6 5 -3 3 -5 5 -5 7 0 2 -1 4 -9 14 -3 5 -5 9 -6 10 -1 4 -6 14 -9 20 -2 3 -3 6 -3 7 0 1 -1 2 -1 3 -2 1 -4 8 -4 11 0 2 0 3 -1 3 0 1 -1 3 -1 6 -1 2 -2 6 -3 7 0 2 -1 4 -1 5 0 1 -1 4 -3 6 -9 15 -25 9 -28 -10 -2 -14 -1 -54 2 -65 0 -3 2 -8 3 -12 0 -5 2 -9 2 -9 1 -1 1 -3 1 -4 0 -2 1 -4 2 -5 1 -1 2 -3 2 -4 -1 -2 5 -19 9 -23 1 -1 2 -3 2 -4 0 -1 1 -4 3 -6 2 -3 4 -7 5 -9 1 -2 3 -5 4 -7 2 -1 3 -3 3 -3 0 -1 2 -3 3 -5 2 -3 5 -6 6 -8 1 -3 4 -6 6 -8 2 -2 5 -5 6 -7 3 -4 14 -15 15 -15 0 0 3 -3 7 -6 11 -9 19 -15 23 -17 10 -6 17 -13 17 -16 -1 -3 -6 -14 -9 -22 -1 -2 -2 -5 -2 -7 0 -1 0 -3 -1 -4 -2 -1 -6 -18 -8 -27 0 -2 -1 -6 -2 -7 -1 -4 -1 -85 0 -86 0 -1 1 -4 1 -6 1 -2 2 -11 3 -19 0 -8 1 -19 2 -24 0 -6 1 -11 1 -12 2 -2 1 -33 0 -36 -1 -2 -1 -7 -1 -12 0 -7 0 -9 -1 -10 -1 -1 -2 -3 -2 -3 0 -2 -4 -13 -5 -15 -3 -3 -4 -6 -4 -7 0 -2 -4 -9 -5 -11 -2 -3 -10 -15 -12 -18 -2 -5 -14 -15 -16 -15 -1 0 -2 -1 -3 -1 0 -1 -3 -3 -6 -6 -3 -2 -5 -4 -6 -5 0 -2 -2 -4 -3 -5 l-3 -3 0 -116 0 -116 4 -6 c6 -8 9 -11 11 -11 1 0 2 0 2 -1 0 0 1 -1 3 -2 4 -3 12 -3 70 -3 l34 0 5 4 c6 7 7 21 2 30 -1 2 -2 4 -2 5 0 1 -1 2 -1 4 -1 1 -2 2 -2 4 0 2 -16 18 -21 20 -6 4 -9 5 -15 6 -6 1 -11 4 -9 6 1 1 1 4 0 7 0 3 0 7 1 12 1 4 2 10 2 13 0 3 1 8 2 10 0 2 1 5 0 6 0 1 0 2 0 3 1 2 2 11 2 17 1 3 1 9 2 13 1 5 1 9 1 10 -1 1 0 3 0 4 0 2 1 6 2 10 1 5 2 10 2 11 1 1 1 3 1 4 0 1 2 2 3 1 1 -1 2 0 4 2 2 1 4 2 4 1 1 0 2 1 4 1 8 4 14 7 15 7 0 0 5 2 10 4 6 2 11 4 11 4 1 0 2 1 3 2 4 3 7 1 9 -7 2 -7 2 -9 2 -92 1 -97 1 -98 10 -108 1 -1 2 -3 2 -4 0 -1 1 -3 2 -3 15 -8 11 -7 65 -7 53 0 53 -1 57 5 5 6 6 24 2 29 -1 2 -2 4 -2 5 0 1 -1 2 -2 3 0 2 -1 3 -1 4 0 2 -11 15 -12 15 -1 0 -3 1 -4 3 -1 2 -3 3 -4 3 -2 0 -3 1 -4 2 -1 1 -2 2 -3 2 -1 0 -2 0 -2 1 -1 0 -3 1 -6 1 -12 2 -15 7 -11 22 1 6 2 14 3 34 1 2 1 9 2 16 2 18 3 36 3 44 0 10 4 19 9 19 1 0 2 1 3 2 1 0 2 1 3 1 0 0 1 1 2 2 0 1 1 1 3 1 2 -1 3 -1 3 0 1 1 2 2 3 2 1 0 2 1 3 1 1 1 2 2 3 2 1 0 2 1 3 1 1 1 3 2 5 3 2 1 6 3 8 5 6 5 10 7 11 7 1 0 3 1 5 3 1 2 3 3 4 3 0 0 2 2 4 4 3 2 5 4 7 4 1 1 2 2 2 3 0 1 1 2 2 3 2 0 10 7 11 9 1 0 4 4 7 7 3 3 5 5 4 6 0 1 3 4 6 6 1 1 2 2 2 2 0 1 2 4 5 6 2 2 4 5 4 6 0 1 1 2 2 3 0 1 1 2 1 2 0 1 2 3 4 6 4 5 11 17 11 18 0 1 1 1 1 2 2 0 3 3 5 11 1 3 2 6 2 7 1 1 2 4 3 8 3 7 6 14 8 15 1 0 6 -2 10 -4 1 -1 3 -1 4 -1 2 0 4 -1 6 -2 3 -1 5 -2 6 -2 1 0 3 -1 5 -1 1 -1 5 -2 8 -3 3 -1 8 -2 10 -3 3 0 6 -1 7 -1 1 0 3 -1 4 -2 1 -1 4 -2 6 -2 2 0 5 0 6 -1 2 0 6 -2 10 -3 4 -1 8 -2 9 -2 1 0 3 0 4 -1 0 -1 5 -2 10 -3 5 -1 12 -3 15 -3 2 -1 8 -2 13 -2 5 0 9 0 10 -1 0 0 5 -1 11 -1 15 -1 37 -3 39 -4 0 -1 1 -3 2 -6 1 -6 1 -5 1 -24 1 -8 1 -15 2 -15 0 -1 1 -9 1 -18 1 -9 2 -18 2 -19 1 -2 1 -15 2 -28 1 -13 1 -27 2 -29 0 -3 0 -12 1 -21 0 -9 1 -16 1 -17 1 0 1 -11 1 -23 1 -15 2 -30 3 -49 2 -15 4 -31 4 -35 0 -5 1 -10 2 -12 1 -2 2 -5 3 -7 1 -2 2 -3 2 -3 1 0 1 -1 1 -2 0 -2 3 -5 5 -5 0 0 2 -1 2 -2 1 -1 2 -2 2 -2 2 0 7 -4 7 -6 0 -3 7 -3 55 -3 47 0 47 0 51 2 4 3 5 3 6 2 8 -5 12 -5 61 -5 43 0 47 0 49 1 1 1 2 2 3 2 4 0 11 21 8 22 -1 1 -1 3 -1 5 0 5 -2 10 -6 16 -2 3 -3 6 -3 6 0 1 -1 3 -2 3 -2 1 -4 3 -5 6 -1 4 -2 5 -6 6 -3 1 -6 2 -8 4 -3 2 -14 7 -20 8 -7 1 -10 6 -9 12 1 3 1 9 1 13 0 4 1 15 2 25 0 10 1 21 1 24 0 4 1 9 2 13 0 3 1 8 1 11 0 3 0 8 1 11 1 7 3 27 3 39 1 4 1 8 2 9 1 2 2 9 3 17 0 3 0 11 1 17 0 6 1 13 1 14 1 2 2 6 2 9 0 8 3 37 3 38 1 1 3 11 3 19 1 2 1 11 2 20 2 30 4 36 18 51 3 4 6 7 6 8 0 1 2 3 5 6 2 3 5 8 7 10 1 2 3 7 5 10 2 3 4 7 5 9 1 2 3 4 3 5 1 1 1 2 2 4 0 1 1 2 2 2 1 1 2 2 2 4 1 1 2 4 3 7 1 2 2 5 3 8 1 2 2 6 4 9 4 10 5 12 5 16 0 3 1 7 1 9 1 3 3 7 4 11 0 3 2 7 3 8 1 2 1 6 1 12 0 7 0 11 2 13 1 2 2 6 2 13 0 13 2 35 3 36 1 0 3 1 5 1 4 0 5 1 5 4 0 1 1 3 2 4 0 1 1 3 1 5 0 1 1 3 1 4 1 1 2 3 2 5 1 2 2 4 2 5 2 2 1 14 -1 16 -1 2 -1 2 0 4 1 1 2 2 2 3 0 2 16 18 19 20 2 0 3 1 3 2 0 3 13 11 18 11 3 0 7 2 11 4 5 3 7 3 55 6 3 1 7 1 8 2 1 1 5 1 8 1 8 0 28 3 30 4 1 1 3 1 4 1 1 0 3 1 5 2 1 1 4 2 5 2 1 0 4 1 7 2 3 2 6 3 7 3 1 0 2 1 3 2 1 1 2 2 3 2 1 0 3 1 6 3 2 1 4 2 6 3 6 3 25 26 30 35 0 2 2 4 2 6 3 4 3 5 4 7 1 1 1 3 2 4 3 5 4 8 4 10 0 2 1 4 3 6 2 2 3 4 3 6 0 1 1 3 2 4 0 1 1 4 2 6 0 3 1 5 2 6 1 2 1 25 -1 27 -1 1 -2 2 -2 3 0 0 -1 1 -1 2 -1 1 -2 2 -2 3 0 1 -1 2 -2 2 -2 0 -3 0 -3 1 -1 1 -2 1 -4 1 -2 0 -4 1 -6 1 -4 2 -20 5 -28 6 -4 0 -7 1 -8 1 -1 1 -3 2 -4 2 -1 0 -2 0 -3 1 0 1 -4 1 -7 2 -3 0 -7 0 -7 1 -1 0 -4 1 -6 2 -3 0 -5 1 -6 1 0 1 -1 1 -2 1 -2 0 -4 1 -14 5 -2 1 -4 2 -5 2 0 0 -2 1 -4 3 -2 2 -5 4 -6 4 -5 3 -8 6 -10 13 -1 4 -3 7 -4 8 -2 2 -9 17 -9 19 0 1 -1 2 -2 3 0 2 -1 3 -1 4 0 0 -1 3 -2 5 -2 2 -3 5 -3 6 0 1 -1 2 -2 3 -1 2 -3 5 -5 9 -2 3 -4 7 -6 8 -1 1 -2 3 -2 4 0 1 -1 2 -2 2 -1 1 -4 4 -7 7 -3 4 -8 9 -11 12 -4 3 -7 6 -8 7 -1 1 -2 2 -2 2 -1 0 -4 2 -6 4 -5 5 -5 5 -1 29 1 6 2 13 2 16 1 17 2 33 3 34 4 7 1 97 -2 101 -1 1 -2 3 -3 5 0 1 -1 3 -1 3 0 0 -1 2 -2 3 -1 2 -3 3 -3 3 -1 0 -2 1 -3 1 -2 2 -6 3 -10 2z m-260 -1010 c1 -1 1 -5 2 -10 0 -5 1 -9 1 -10 1 -1 1 -6 1 -11 2 -18 2 -28 3 -32 0 -8 2 -37 2 -44 0 -4 1 -8 1 -10 1 -3 2 -23 1 -24 -1 0 -3 1 -5 2 -2 2 -4 3 -5 3 0 0 -2 1 -3 2 -3 2 -10 5 -13 5 -3 0 -4 11 -2 14 1 2 2 3 1 5 -1 2 -1 6 0 13 1 5 2 12 2 16 0 3 1 8 1 11 1 4 2 8 2 11 0 2 1 6 1 9 1 3 4 24 6 39 2 13 3 16 4 11z"/>
    <path fill="#d4b487" transform="scale(0.333333) translate(0.000000,1239.000000) scale(1.000000,-1.000000)" d="M929 1054 c-3 -3 -3 -1 -6 -64 -1 -15 -2 -21 -3 -23 -2 -5 -3 -9 -4 -26 -1 -16 -1 -17 -6 -25 -2 -2 -3 -5 -4 -10 -1 -10 -9 -19 -22 -26 -9 -4 -12 -4 -20 2 -3 2 -6 4 -8 5 -2 1 -6 3 -10 6 -4 2 -9 5 -11 6 -3 1 -6 3 -7 5 -1 2 -4 4 -5 5 -2 1 -5 2 -6 4 -2 1 -6 3 -10 5 -8 4 -9 4 -10 -3 0 -6 1 -8 8 -10 7 -2 11 -6 14 -14 5 -12 27 -26 40 -24 7 0 8 0 11 -2 2 -3 4 -3 11 -3 14 0 22 5 30 20 2 3 5 8 7 10 4 4 5 8 5 15 0 6 1 9 5 13 2 2 3 4 4 6 0 1 1 5 2 9 1 3 2 8 2 10 0 2 1 7 2 12 5 28 6 50 2 59 -2 4 -2 6 -2 17 1 6 1 13 1 15 1 7 -6 11 -10 6z M350 414 c-2 -1 -4 -6 -5 -15 0 -9 -2 -13 -7 -20 -3 -5 -9 -15 -11 -19 -1 -1 -2 -5 -2 -9 -1 -6 -1 -7 -5 -10 -3 -3 -6 -7 -8 -10 -2 -3 -6 -9 -9 -13 -9 -10 -13 -14 -14 -17 -1 -2 -4 -5 -6 -6 -2 -2 -5 -5 -6 -6 -3 -6 -15 -18 -19 -19 -2 -1 -6 -3 -8 -5 -2 -3 -7 -6 -9 -7 -3 -1 -8 -6 -13 -11 -11 -11 -12 -19 -10 -80 1 -20 1 -42 1 -50 0 -10 0 -13 2 -15 1 -2 2 -5 2 -10 0 -17 2 -40 2 -41 1 0 2 -5 2 -10 2 -10 2 -11 13 -18 13 -9 9 -8 49 -8 20 0 37 1 39 1 2 1 5 1 8 0 10 -1 15 6 13 18 -1 4 -2 9 -1 11 1 6 -1 8 -6 12 -3 2 -8 7 -12 11 -6 7 -8 8 -13 9 -17 5 -19 7 -18 21 0 17 1 39 2 48 1 3 1 12 2 19 1 6 1 14 2 17 0 2 1 9 0 16 0 6 0 12 0 14 0 5 3 10 8 12 2 1 5 3 7 4 1 1 3 2 5 2 1 0 4 1 6 2 2 1 6 3 9 3 3 2 6 3 8 6 1 1 4 4 6 5 2 1 5 4 7 5 1 2 6 4 9 7 4 2 8 5 11 7 2 2 5 4 8 4 5 1 7 3 7 7 0 3 12 16 17 17 5 1 7 4 7 8 0 3 1 5 3 8 2 2 5 6 7 10 1 4 4 9 7 11 7 9 17 36 17 46 0 8 -9 15 -26 19 -2 1 -7 2 -10 3 -15 7 -21 9 -35 13 -18 5 -28 6 -33 3z M885 396 c-9 -5 -15 -9 -29 -20 -7 -5 -11 -7 -17 -9 -3 -1 -8 -3 -11 -5 -3 -1 -7 -2 -10 -3 -21 -2 -25 -8 -27 -43 -1 -8 -2 -18 -2 -21 -2 -15 -2 -43 0 -48 3 -6 4 -31 4 -61 0 -17 0 -21 1 -25 2 -2 2 -5 2 -9 -1 -4 -1 -9 0 -12 1 -3 1 -9 1 -14 1 -5 1 -11 1 -14 1 -4 1 -7 0 -10 -2 -5 -1 -12 2 -21 1 -3 2 -8 2 -10 0 -6 2 -10 8 -13 7 -4 9 -7 9 -17 0 -11 6 -19 19 -24 10 -4 79 -4 85 1 11 6 12 20 3 34 -2 2 -3 6 -4 7 -1 7 -28 26 -36 27 -7 0 -9 2 -10 14 -1 17 0 42 2 48 3 11 4 18 4 33 -1 13 -1 13 2 17 3 6 4 16 3 33 -2 19 -2 20 3 29 5 10 6 21 2 32 -2 8 -1 15 3 24 4 7 4 8 3 14 0 6 0 7 2 12 2 4 2 6 2 26 0 33 -2 36 -17 28z"/>
    <path fill="#1d6646" transform="scale(0.333333) translate(0.000000,1239.000000) scale(1.000000,-1.000000)" d="M1037 1225 c-2 -1 -5 -2 -6 -3 -1 -1 -3 -3 -5 -4 -6 -2 -33 -29 -33 -33 -1 -1 -2 -3 -4 -4 -2 -1 -4 -4 -5 -6 -2 -2 -6 -7 -9 -12 -3 -4 -6 -8 -6 -9 0 0 -2 -3 -4 -6 -2 -3 -4 -6 -4 -6 0 -1 -2 -4 -4 -7 -2 -4 -4 -7 -4 -8 0 -1 -1 -3 -3 -5 -2 -2 -5 -7 -7 -10 -2 -4 -5 -10 -7 -14 -3 -7 -5 -17 -2 -14 1 1 2 1 2 -2 1 -1 3 -6 5 -10 5 -9 7 -10 23 -10 6 0 15 -1 20 -2 4 0 11 -2 15 -2 3 -1 9 -2 11 -3 2 -1 8 -3 13 -5 5 -2 10 -4 12 -4 1 -1 3 -2 4 -2 0 0 2 -1 4 -2 2 -2 5 -3 7 -3 2 0 3 -1 3 -2 0 -1 1 -1 3 1 2 2 3 3 4 10 1 5 2 12 3 16 1 8 2 12 3 31 0 7 1 14 1 15 2 2 2 80 0 82 0 1 -1 5 -1 9 -2 19 -13 28 -29 24z M1221 885 c-5 0 -8 -1 -9 -2 0 0 1 -1 3 0 1 0 2 0 1 -1 -8 -2 -14 -12 -12 -20 1 -3 1 -6 2 -8 1 -4 10 -17 17 -22 7 -7 10 -8 20 -8 8 0 10 -1 9 -2 -1 -1 -1 -1 1 -1 3 0 7 4 7 7 1 1 2 6 3 11 3 12 4 27 2 30 -1 1 -2 2 -2 3 0 0 -1 2 -3 4 -2 3 -4 4 -11 6 -12 3 -15 4 -28 3z M745 801 c-3 -1 -7 -6 -10 -11 -1 -2 -3 -5 -4 -7 -3 -4 -4 -5 -1 -10 2 -4 2 -4 2 -1 0 3 0 3 1 0 1 -2 4 -5 10 -9 4 -3 9 -7 11 -9 1 -2 4 -3 7 -4 3 -1 7 -3 8 -5 2 -1 7 -5 11 -7 4 -2 9 -5 10 -7 1 -1 5 -3 7 -4 2 -1 5 -3 7 -4 2 -2 5 -4 19 -12 4 -2 8 -5 9 -5 0 -1 1 -1 2 -1 1 0 4 -2 6 -3 3 -2 8 -5 11 -6 4 -1 8 -3 11 -5 2 -1 6 -4 9 -5 3 -2 7 -4 8 -4 1 -1 6 -3 11 -5 4 -3 9 -5 11 -6 2 -1 4 -2 5 -2 1 0 3 -1 6 -2 2 -1 4 -2 6 -2 1 0 4 -1 6 -3 3 -2 6 -4 9 -5 2 0 8 -2 14 -3 5 -2 13 -4 17 -6 4 -1 10 -4 14 -5 11 -3 16 -6 15 -8 0 -1 0 -1 3 0 7 1 11 6 12 13 1 3 2 7 3 9 4 7 4 10 0 14 -2 3 -3 3 -3 2 0 -2 -7 0 -11 3 -2 0 -4 1 -6 1 -2 1 -7 2 -12 4 -5 2 -10 3 -10 3 -1 0 -4 1 -7 2 -3 2 -7 3 -9 4 -3 0 -5 2 -6 2 -1 1 -4 2 -7 3 -2 1 -8 4 -13 6 -4 2 -8 4 -8 4 -1 0 -6 2 -12 5 -5 3 -11 5 -14 6 -4 1 -15 7 -16 8 0 0 -3 2 -6 3 -3 1 -7 3 -8 4 -2 2 -8 5 -12 7 -5 3 -11 6 -12 7 -1 2 -4 3 -7 4 -2 1 -8 4 -12 7 -5 3 -9 6 -10 6 -1 0 -3 1 -5 3 -3 2 -5 3 -6 3 0 0 -3 2 -7 5 -3 2 -6 4 -7 4 0 0 -3 2 -6 5 -3 3 -6 5 -7 6 -2 0 -6 3 -9 6 -7 5 -11 7 -14 6 -1 -1 -2 0 -1 0 0 1 1 1 2 1 0 0 1 0 2 1 0 1 -3 1 -7 -1z"/>
    <path fill="#15181d" transform="scale(0.333333) translate(0.000000,1239.000000) scale(1.000000,-1.000000)" d="M1047 927 c-13 -3 -16 -27 -5 -36 6 -6 16 -3 21 5 5 10 -1 31 -9 31 -1 0 -2 0 -3 0 -1 1 -3 0 -4 0z"/>
    </g>
  </defs>
  <use href="#ds"/>
  <use href="#ds" filter="url(#g-ds)" opacity="0.7"/>
</svg>
